<svg xmlns="http://www.w3.org/2000/svg" xmlns:xlink="http://www.w3.org/1999/xlink" id="Layer_1" x="0px" y="0px" viewBox="0 0 300 82.5" style="enable-background:new 0 0 300 82.5;" xml:space="preserve"><style type="text/css">	.st0{fill:#FFFFFF;}	.st1{opacity:1;}	.st2{fill:#FFFFFF;}	.st3{fill:#FFFFFF;}	.st4{fill:#FFFFFF;}	.st5{opacity:1;}	.st6{fill:#FFFFFF;}	.st7{fill:#1681C4;}	st9{fill:#FFFFFF;}	.st8{opacity:1;}</style><g>	<g>		<g>			<path class="st0" d="M74.5,61.53c-3.56-2.06-6.37-4.85-8.45-8.39c-2.08-3.53-3.12-7.4-3.12-11.6c0-4.24,1.04-8.13,3.12-11.66     c2.08-3.54,4.89-6.33,8.45-8.38c3.56-2.06,7.47-3.08,11.73-3.08c3.18,0,6.24,0.6,9.2,1.8c2.96,1.2,5.5,2.93,7.64,5.19     c2.13,2.26,3.58,4.93,4.34,7.99h-5.87c-1.24-3.02-3.23-5.39-5.95-7.1c-2.73-1.71-5.89-2.56-9.48-2.56c-3.2,0-6.12,0.77-8.78,2.3     c-2.65,1.53-4.75,3.65-6.3,6.36c-1.55,2.71-2.32,5.76-2.32,9.15c0,3.42,0.77,6.47,2.32,9.17c1.54,2.7,3.64,4.8,6.3,6.31     c2.65,1.51,5.58,2.27,8.78,2.27c3.24,0,6.05-0.6,8.42-1.8c2.37-1.2,4.25-2.82,5.63-4.88c1.38-2.05,2.28-4.39,2.69-7l-16.94,0     l0-5.22l22.94,0c0.02,4.52-0.87,8.63-2.66,12.3c-1.8,3.68-4.4,6.58-7.82,8.71c-3.42,2.13-7.46,3.2-12.14,3.2     C81.97,64.62,78.06,63.59,74.5,61.53z"></path>		</g>		<g>			<path class="st0" d="M123.22,62.97c-2.27-1.16-4.05-2.97-5.32-5.42c-1.27-2.45-1.91-5.54-1.91-9.28l0-17.78h5.58l0,17.62     c0,3.7,0.83,6.51,2.48,8.43c1.65,1.93,4.01,2.89,7.08,2.89c3.09,0,5.46-0.96,7.1-2.87c1.64-1.91,2.46-4.73,2.46-8.45l0-17.62     h5.61l0,17.78c0,3.72-0.64,6.81-1.93,9.27c-1.28,2.46-3.06,4.27-5.32,5.43s-4.88,1.75-7.86,1.75     C128.15,64.72,125.49,64.13,123.22,62.97z"></path>		</g>		<g>			<path class="st0" d="M161.58,30.49l0,7.44c0.83-2.33,2.12-4.15,3.88-5.46c1.76-1.32,3.84-1.97,6.23-1.97h3.23l0,4.93h-2.94     c-1.96,0-3.71,0.51-5.25,1.52c-1.54,1.01-2.75,2.47-3.62,4.39c-0.87,1.91-1.31,4.18-1.31,6.79l0,15.66l-5.65,0l0-33.28H161.58z"></path>		</g>		<g>			<path class="st0" d="M187.8,62.98c-2.27-1.16-4.05-2.97-5.32-5.42c-1.27-2.45-1.91-5.54-1.91-9.28l0-17.78h5.58l0,17.62     c0,3.7,0.83,6.51,2.48,8.43c1.65,1.93,4.01,2.89,7.08,2.89c3.09,0,5.45-0.96,7.1-2.87c1.64-1.91,2.46-4.73,2.46-8.45l0-17.62     l5.61,0l0,17.78c0,3.72-0.64,6.81-1.93,9.27c-1.28,2.46-3.06,4.27-5.32,5.43c-2.26,1.16-4.88,1.75-7.86,1.75     C192.73,64.72,190.07,64.14,187.8,62.98z"></path>		</g>		<g>			<path class="st0" d="M242.86,63.78l-10.28-16.25l-6.23,6.89l0,9.36l-5.61,0l0-45.94l5.61,0l0,30.38l14.29-17.72h6.89L236.7,43.84l12.53,19.94     H242.86z"></path>		</g>		<g>			<path class="st0" d="M261.44,62.98c-2.27-1.16-4.05-2.97-5.32-5.42c-1.27-2.45-1.91-5.54-1.91-9.28l0-17.78h5.58l0,17.62     c0,3.7,0.83,6.51,2.48,8.43c1.65,1.93,4.01,2.89,7.08,2.89c3.09,0,5.45-0.96,7.1-2.87c1.64-1.91,2.46-4.73,2.46-8.45l0-17.62     l5.61,0l0,17.78c0,3.72-0.64,6.81-1.93,9.27c-1.28,2.46-3.06,4.27-5.32,5.43c-2.26,1.16-4.88,1.75-7.86,1.75     C266.38,64.73,263.72,64.14,261.44,62.98z"></path>		</g>		<g>			<path class="st0" d="M294.39,17.77l5.61,0l0,46.01l-5.61,0L294.39,17.77z"></path>		</g>	</g>	<path class="st7" d="M16.55,11.97c-0.65-0.05-1.33-0.07-2.06-0.07c-0.73,0-1.41,0.02-2.06,0.07l-0.55,0.04v15.44h5.22v-10.2   c11.06,1.1,20.17,9.01,22.78,19.88c0.48,1.98,0.73,4.04,0.73,6.11c0,1.7-0.16,3.38-0.49,5.03c-0.06,0.35-0.14,0.69-0.24,1.07   c-0.49,2.09-1.26,4.12-2.29,6.07c-0.81,1.79-1.91,3.42-3.3,4.83l-0.09,0.1l-0.01,0.02c-3.22,3.24-7.49,5.02-12.03,5.02   c-3.88,0-7.52-1.28-10.55-3.7c-4.06-3.23-6.39-8.06-6.39-13.24c0-0.29,0.01-0.58,0.02-0.92c0-1.08,0.16-2.14,0.48-3.16l0.03-0.09   c1.04-3.28,3.62-5.87,6.9-6.94c1.06-0.35,2.18-0.53,3.31-0.53c0.17,0,0.35,0.01,0.52,0.01c4.73,0.22,8.69,3.48,9.86,8.02H11.87   v5.22h19.82l0.07-0.51c0.09-0.66,0.13-1.32,0.13-2.03c0-0.76-0.05-1.49-0.15-2.18C30.7,37.65,24.3,31.87,16.55,31.6   c-0.32-0.03-0.69-0.03-0.95-0.01c-1.11,0.02-2.21,0.16-3.27,0.41c-5.48,1.27-9.92,5.4-11.59,10.76c-0.02,0.06-0.04,0.13-0.06,0.22   c-0.36,1.41-0.58,2.86-0.65,4.34l0,0.07c0,0.04,0,0.08,0,0.1C0.01,47.81,0,48.13,0,48.44c0,10.74,7.66,19.91,18.2,21.8   c1.28,0.23,2.61,0.35,3.96,0.35c6.09,0,11.78-2.42,16.02-6.85c1.61-1.86,3-3.9,4.12-6.07c2.3-4.43,3.52-9.42,3.52-14.43   C45.82,26.77,32.96,13.03,16.55,11.97z"></path></g></svg>