<svg xmlns="http://www.w3.org/2000/svg" viewBox="0 0 200 200"><title>avatar-assets</title><path d="M103.83738,20c1.81881.38259,3.66815.6753,5.45153,1.16212C122.59,24.793,131.164,32.68213,134.04311,44.82c2.88593,12.16669-1.48974,22.46049-11.976,30.63293-.34674.27023-.70216.53152-1.23819.93648,1.00659.37,1.87111.67943,2.72835,1.00426A60.81013,60.81013,0,0,1,142.82548,88.941a2.26074,2.26074,0,0,0,2.70156.51251c2.667-1.00662,5.39545-1.88682,8.12011-2.76567,3.93782-1.27017,7.37364.86645,7.39461,4.60534.02865,5.10578.03616,10.212-.01878,15.31747-.01013.94175.29238,1.31021,1.32062,1.57561,7.53334,1.94448,12.6329,8.00531,12.65632,14.928.0237,7.00322-5.056,13.07814-12.68889,15.06108-1.04508.2715-1.29315.68775-1.28523,1.6001.04708,5.41819.02942,10.83687.02066,16.25538-.00448,2.77591-1.08847,4.22853-4.00733,5.2112q-27.26048,9.1775-54.52881,18.33618a7.54444,7.54444,0,0,1-5.06089-.031Q70.203,170.35671,42.929,161.23228c-2.87082-.96425-3.97166-2.42929-3.97561-5.23014-.00764-5.41851-.02985-10.83725.02393-16.25534.00935-.94211-.29438-1.3102-1.3199-1.57572-7.60445-1.96882-12.68879-8.07263-12.65723-15.083.03115-6.92175,5.13329-12.96728,12.68223-14.9051,1.05509-.27084,1.30087-.68107,1.29185-1.59571-.04881-4.94923.16062-9.90626-.08133-14.84635-.19312-3.94328,3.8703-6.64907,7.983-4.90111,2.55481,1.08584,5.31,1.7898,7.95972,2.70154a1.67946,1.67946,0,0,0,1.86578-.174c9.58255-7.52609,9.59012-7.51834,22.30176-12.94685-.15061-.50772-.697-.67124-1.07585-.97005C66.83037,66.69892,62.53579,55.79485,66.48045,43.01378c3.97652-12.88429,13.96122-20.33827,28.64506-22.701.2698-.04341.595.03339.68843-.31282ZM94.63175,168.57188a2.96734,2.96734,0,0,0,.12807-.54315q.008-27.0349.03716-54.06976c.00234-.99409-.58853-1.16734-1.37058-1.42924q-15.87-5.31484-31.72817-10.65784c-4.04907-1.36157-8.09708-2.72567-12.28018-4.13392,0,3.16751.0292,6.13487-.02059,9.10119-.0124.73846.33826.89849,1.03776,1.12518,3.80891,1.23437,5.93844,3.99179,5.9539,7.63651q.03246,7.6572-.00408,15.31455c-.02209,3.47119-2.16035,6.23828-5.80125,7.40212-.944.30173-1.19954.6633-1.18889,1.5184.05124,4.11463.05982,8.23053-.00487,12.34486-.01472.93613.33551,1.33111,1.286,1.64621q13.689,4.53815,27.34682,9.152C83.543,164.83272,89.05958,166.69516,94.63175,168.57188Zm55.95031-70.8041c-.45958.15184-.66968.22021-.879.29053q-21.48122,7.21858-42.97368,14.41c-1.16239.38674-1.52951.85356-1.52674,1.96326q.06567,26.33263.03078,52.66547v1.34135a1.80851,1.80851,0,0,0,.48212.02793q21.96547-7.36306,43.93328-14.72049a1.20361,1.20361,0,0,0,.9462-1.39629q-.03861-6.32906-.00316-12.65838c.00315-.685-.1227-1.0305-1.00471-1.30773-3.8949-1.22423-5.96955-4.00276-5.97889-7.76691q-.01821-7.345-.00133-14.69007c.00574-4.00627,1.956-6.6107,6.11109-7.99676.6931-.23121.88-.47488.875-1.07539C150.56883,103.887,150.58206,100.91951,150.58206,97.76778ZM100.05964,29.38069c-13.42786-.01906-24.4289,9.75622-24.47758,21.75022-.04917,12.11364,10.8846,21.9992,24.355,22.02008,13.42284.02081,24.42434-9.75523,24.48074-21.75384C124.47468,39.28879,113.53391,29.39982,100.05964,29.38069Zm-32.933,64.274c.50742.17185.97473.33122,1.44289.48853,9.981,3.35366,19.96845,6.69218,29.93386,10.08272a4.23132,4.23132,0,0,0,2.95838.03694c7.52067-2.57069,15.0629-5.09077,22.59862-7.62611,2.93512-.98752,5.87111-1.973,8.91528-2.99586C113.61481,78.19511,84.04583,79.60137,67.12663,93.65471ZM45.92941,123.23938q0-1.48363,0-2.96727c0-3.6589,0-3.65891-4.10949-3.32858a6.74932,6.74932,0,0,0-6.32794,5.54814,6.3326,6.3326,0,0,0,4.83273,6.64c1.59421.46511,3.22656.21333,4.84016.308.82737.04853.7705-.40133.768-.89044C45.92383,126.77931,45.92931,125.00934,45.92941,123.23938Zm108.14132-.09111v2.96689c0,3.55373,0,3.55374,3.97122,3.30414,4.45667-.28009,7.47742-4.21965,6.17429-8.05226-1.144-3.36455-6.38032-5.73242-9.772-4.43923-.55356.21108-.35992.59216-.36363.91139C154.0601,119.60874,154.0708,121.37855,154.07073,123.14827Z" fill="#ffcb35"></path></svg>