<svg xmlns="http://www.w3.org/2000/svg" viewBox="0 0 200 200"><title>avatar-assets</title><path d="M175,138.97407a18.3403,18.3403,0,0,1-3.11443,4.58694c-2.98168,3.57908-5.91947,7.2122-8.92506,10.76131a3.60647,3.60647,0,0,0-.87732,2.62572c.05288,3.25023.03086,6.50261.01558,9.754-.016,3.40059-1.87583,5.82081-4.42467,5.79781-2.55188-.023-4.34982-2.43-4.36046-5.863-.00971-3.1332-.06222-6.269.02554-9.3986a4.36787,4.36787,0,0,0-1.13281-3.21167c-3.349-3.96965-6.64481-8.00526-9.95359-12.02456-2.49749-3.03381-2.5-5.86192-.00323-8.89864q5.11489-6.22105,10.25169-12.41567a2.979,2.979,0,0,0,.83214-2.10754q-.0479-21.10494-.024-42.21013c0-.27928-.02821-.55857-.05337-1.02543-3.42788,1.48792-6.75543,2.94273-10.09034,4.37233-.80921.34689-.55036,1.14641-.55126,1.79294-.0142,10.16825-.16512,20.34173.06594,30.50231a11.55768,11.55768,0,0,1-3.67878,9.235,42.31816,42.31816,0,0,1-19.77126,10.86205c-15.30561,3.88093-30.6194,3.86541-45.80634-.97981a39.68677,39.68677,0,0,1-16.46792-9.95117,11.85887,11.85887,0,0,1-3.5779-9.31934c.22233-10.22032.05385-20.45259.09989-30.67969.00542-1.204-.27756-1.737-1.21556-2.15148-7.90622-3.49372-15.79137-7.05733-23.68342-10.59806a5.70912,5.70912,0,0,1-.04955-10.57348Q62.62471,42.89781,96.7187,27.93549a5.31922,5.31922,0,0,1,4.54481.16657q29.83572,13.11308,59.6847,26.18182c2.7889,1.223,5.57969,2.44048,8.35668,3.70219a5.379,5.379,0,0,1,3.29049,5.08034,5.48234,5.48234,0,0,1-3.30285,5.26105c-2.096.94828-4.19325,1.89881-6.31827,2.74389-.692.27521-.88685.65482-.88582,1.49679q.02841,23.05593-.00485,46.11192a2.78756,2.78756,0,0,0,.77291,1.96161c3.32415,4.00041,6.61762,8.03836,9.95558,12.02169A10.38992,10.38992,0,0,1,175,136.49063ZM42.2373,63.18642c.55094.26161.90342.43717,1.2606.59741q26.4724,11.87574,52.93852,23.77195a3.25815,3.25815,0,0,0,2.90527.01717q21.80571-9.59612,43.64086-19.09408,5.96613-2.60526,11.968-5.212c-.32428-.60632-.761-.60829-1.11168-.76225q-26.95633-11.83354-53.913-23.666a2.85683,2.85683,0,0,0-2.51784.123Q77.17568,47.85,56.93693,56.71694C52.09422,58.84162,47.25492,60.97772,42.2373,63.18642Zm91.57361,20.90276c-.6458-.17821-1.06777.197-1.50884.38914q-15.93021,6.938-31.8461,13.92389a5.67365,5.67365,0,0,1-4.95357.11462c-10.42687-4.75124-20.87694-9.42794-31.32572-14.10835a3.65679,3.65679,0,0,0-1.93353-.63676c0,9.11512.02286,18.16044-.02626,27.20519a3.49336,3.49336,0,0,0,1.11556,2.82737,28.51591,28.51591,0,0,0,10.68608,6.35405,73.21271,73.21271,0,0,0,44.41391,1.16811,34.70367,34.70367,0,0,0,14.213-7.5543,3.507,3.507,0,0,0,1.195-2.955c-.06041-7.74476-.02948-15.49056-.02948-23.236Zm30.48333,53.5195a5.37257,5.37257,0,0,0-.35583-.57486c-1.92446-2.339-3.867-4.65664-5.77223-7.01829-.48043-.59552-.734-.23928-1.05927.156-1.82172,2.21381-3.63111,4.44321-5.48324,6.61921-.52131.61247-.45847.98077.02769,1.55379,1.81437,2.13856,3.61568,4.2954,5.36792,6.50806.55864.70543.86963.6111,1.38652-.03717,1.72471-2.16308,3.50017-4.26681,5.25451-6.3953C163.86189,138.17551,164.053,137.91824,164.29424,137.60868Z" fill="#ffcb35"></path></svg>