<svg xmlns="http://www.w3.org/2000/svg" viewBox="0 0 200 200"><title>avatar-assets</title><path d="M171.82952,24.9761c3.25527,1.94147,3.72359,3.1454,2.66109,6.95473q-8.65355,31.02549-17.30407,62.0518c-.57629,2.07166-1.68032,3.52-3.92163,3.77359-2.2346.25284-3.64677-.88595-4.68208-2.78069-2.42884-4.445-4.9733-8.8272-7.37232-13.28786-.63106-1.17338-.975-.99435-1.76687-.19446q-8.29764,8.38188-16.66516,16.69461c-2.57122,2.57011-4.86906,2.56627-7.45521-.0175q-6.99637-6.98994-13.98437-13.98827c-2.31124-2.316-2.31867-4.72677-.01241-7.03332,5.90412-5.90479,11.81723-11.80056,17.84977-17.82276-2.54667-1.42535-4.997-2.79884-7.44929-4.16872-2.296-1.28259-4.59991-2.55133-6.8898-3.8448-2.01081-1.13583-2.81978-2.63417-2.53481-4.66908a4.38411,4.38411,0,0,1,3.59518-3.75513q31.02354-8.65713,62.04281-17.32956c.44017-.12309.98368-.07106,1.25152-.58258ZM151.40059,81.963c4.35051-15.57661,8.60732-30.81777,12.91509-46.2413-15.46395,4.319-30.66369,8.5643-45.88121,12.81453.16879.55238.59811.61185.91826.79195,2.75817,1.55155,5.52417,3.08919,8.28416,4.6375,3.79675,2.12991,4.21918,5.06766,1.16505,8.12474q-8.79873,8.80716-17.61918,17.59243c-.71564.70924-.93539,1.0907-.0658,1.90764,2.41831,2.27188,4.75746,4.63234,7.04452,7.03709.742.78015,1.10916.66394,1.79991-.03332q8.91606-9.00012,17.90029-17.93268c2.82888-2.82438,5.90568-2.37508,7.86992,1.13659C147.559,75.06514,149.37855,78.33654,151.40059,81.963Z" fill="#ffcb35"></path><path d="M25,80.36544c.75611-1.11071,1.4213-2.29,2.77211-2.84422,1.6649-.68312,3.181-.15442,4.63323.56421.90106.44589,1.39518.3744,1.988-.506a16.86806,16.86806,0,0,1,4.64769-4.618c.86388-.57587.848-1.0525.45538-1.876a5.87033,5.87033,0,0,1-.81477-3.78281,4.46843,4.46843,0,0,1,3.596-3.588c1.783-.30116,4.00955.525,4.48473,2.26925.7654,2.80946,2.3971,3.02833,4.78868,2.5425a12.15523,12.15523,0,0,1,4.65463.268c.69873.13389.97105-.06037,1.17855-.66345a16.63514,16.63514,0,0,1,.77834-1.88915,4.41494,4.41494,0,0,1,5.54742-2.26779c2.11754.79483,3.58976,3.29009,2.54933,5.3315-1.258,2.46825-.50587,3.75444,1.52345,5.09063a11.288,11.288,0,0,1,3.12771,3.4574,1.00814,1.00814,0,0,0,1.52838.41615,9.98786,9.98786,0,0,1,2.45575-.91093A4.38213,4.38213,0,0,1,77.758,85.53437c-.04271.02345-.08933.03979-.132.06333-.88162.48658-2.27076.477-2.61842,1.35648-.33239.84084.12691,1.991.22509,3.0065a17.81079,17.81079,0,0,1-.25552,4.81164c-.12836.72791-.01756,1.07057.68286,1.3003a12.95,12.95,0,0,1,2.01332.854,4.38794,4.38794,0,0,1,2.03965,5.628c-.86478,2.02753-3.3159,3.38934-5.30561,2.36515-2.39127-1.23088-3.66829-.58586-4.98407,1.45084a12.01848,12.01848,0,0,1-3.55268,3.24068c-.595.398-.7563.7358-.42014,1.40278a11.27481,11.27481,0,0,1,.88493,2.31006,4.31381,4.31381,0,0,1-2.76279,5.158c-2.07007.74413-4.64732-.02229-5.28085-2.11985-.81806-2.70852-2.35018-2.96582-4.69162-2.47285a11.9535,11.9535,0,0,1-4.65593-.25481c-.78023-.14887-1.04994.08766-1.28011.72945a14.67691,14.67691,0,0,1-.86043,2.011,4.38471,4.38471,0,0,1-5.64437,1.9874c-2.01673-.88616-3.34092-3.35554-2.32321-5.32943,1.18611-2.3005.64474-3.57662-1.37011-4.87262a11.28066,11.28066,0,0,1-3.2489-3.54143c-.48622-.76775-.91881-.77911-1.64468-.42913a6.88142,6.88142,0,0,1-3.48118.94785C27.053,104.99572,25.93089,103.6544,25,102.05227V99.70775a5.61782,5.61782,0,0,1,3.97583-3.50436c1.038-.27489,1.29076-.771,1.0738-1.87832a16.706,16.706,0,0,1,.04247-6.54117c.20616-1.01254-.16483-1.32569-.94229-1.54451A6.13278,6.13278,0,0,1,25,82.71Zm41.48072,10.6503a13.94667,13.94667,0,1,0-13.78118,14.14451A13.97667,13.97667,0,0,0,66.48072,91.01574Z" fill="#ffcb35"></path><path d="M127.91384,117.46333a4.90385,4.90385,0,0,1-1.84692,3.67356c-.80352.778-2.01322,1.52835-2.18336,2.44961-.14693.79553.9259,1.80944,1.44328,2.73588a24.52141,24.52141,0,0,1,2.80558,7.64093c.16761.93467.53463,1.21045,1.4348,1.14876a29.89423,29.89423,0,0,1,3.221-.00406,4.36177,4.36177,0,0,1,.65372,8.65546,18.69088,18.69088,0,0,1-3.9437.10612c-.80419-.00917-1.1972.143-1.36448,1.0551a24.50311,24.50311,0,0,1-3.9435,9.507c-.49177.71706-.47994,1.12732.17227,1.69327a27.93691,27.93691,0,0,1,2.3795,2.38129,4.42469,4.42469,0,0,1-.07445,6.09118,4.35675,4.35675,0,0,1-6.081.12078c-.87031-.78146-1.6842-1.62936-2.4844-2.4839-.45687-.48789-.79731-.64625-1.44475-.19826a25.97443,25.97443,0,0,1-9.90951,4.12113c-.6762.132-.8894.35416-.86166,1.022.04861,1.16972.042,2.344.00365,3.51459a4.387,4.387,0,0,1-8.77232.0542c-.07193-1.45571.43-3.28337-.274-4.26212-.63239-.87928-2.57973-.76524-3.91077-1.20026a23.45317,23.45317,0,0,1-6.39554-3.15519,1.04688,1.04688,0,0,0-1.6892.187,29.28485,29.28485,0,0,1-2.27185,2.28276,4.37071,4.37071,0,0,1-6.19241.0222,4.43036,4.43036,0,0,1,.05906-6.30563c.93425-.98993,2.45013-1.86385,2.65323-2.98105.17929-.98625-1.11432-2.2292-1.73046-3.3734a24.03529,24.03529,0,0,1-2.508-7.134c-.13517-.74544-.4067-.98263-1.12749-.95176-1.07217.04592-2.1492.04493-3.22174.00259a4.40679,4.40679,0,0,1-4.52442-4.53889c.05324-2.46739,1.93531-4.198,4.625-4.24443,1.26821-.0219,2.77254.38666,3.73984-.1603,1.00346-.56743.72423-2.28106,1.12568-3.462a25.69274,25.69274,0,0,1,3.26468-6.82426c.64063-.89316.52157-1.3875-.24783-2.03552a23.16425,23.16425,0,0,1-2.18-2.1664,4.37712,4.37712,0,0,1,6.21254-6.16577c1.04152.95632,1.93481,2.61188,3.06713,2.778,1.09886.16118,2.40255-1.20922,3.64387-1.85392a22.63441,22.63441,0,0,1,6.72909-2.34195c.86067-.14272,1.25214-.44795,1.165-1.3965a24.71479,24.71479,0,0,1-.01256-3.22008,4.388,4.388,0,1,1,8.77582.066,21.99383,21.99383,0,0,1-.01737,3.073c-.11725,1.035.3542,1.30684,1.24568,1.47845a24.81952,24.81952,0,0,1,9.3658,3.91394c.7072.48246,1.10506.513,1.67832-.15131a23.418,23.418,0,0,1,2.48667-2.48008,4.19869,4.19869,0,0,1,4.77845-.657A4.15253,4.15253,0,0,1,127.91384,117.46333Zm-26.20657,40.421a18.41042,18.41042,0,1,0-18.63442-18.08024A18.47726,18.47726,0,0,0,101.70727,157.8843Z" fill="#ffcb35"></path><path d="M56.93846,91.235a4.3937,4.3937,0,1,1-4.33321-4.41726A4.44614,4.44614,0,0,1,56.93846,91.235Z" fill="#ffcb35"></path><path d="M101.532,135.0968a4.35823,4.35823,0,0,1,4.36475,4.3515,4.39443,4.39443,0,1,1-8.78814-.03946A4.3997,4.3997,0,0,1,101.532,135.0968Z" fill="#ffcb35"></path></svg>