<svg xmlns="http://www.w3.org/2000/svg" xmlns:xlink="http://www.w3.org/1999/xlink" id="Layer_2" data-name="Layer 2" viewBox="0 0 68.47 68.47"><defs><style>      .cls-1 {        fill: #1e81ce;      }      .cls-1, .cls-2, .cls-3, .cls-4 {        stroke-width: 0px;      }      .cls-2 {        fill: none;      }      .cls-3 {        fill: #fff;      }      .cls-4 {        fill: #9bc9ff;      }      .cls-5 {        clip-path: url(#clippath);      }    </style><clipPath id="clippath"><rect class="cls-2" width="68.47" height="68.47"></rect></clipPath></defs><g id="Layer_1-2" data-name="Layer 1"><g class="cls-5"><g id="_94_Design_Experience_Testing_User_Ux" data-name="94, Design, Experience, Testing, User, Ux"><g><path class="cls-4" d="M60.24,22.02v38.13c0,1.94-1.62,3.48-3.67,3.48H11.25c-2.05,0-3.67-1.53-3.67-3.48V22.02h52.66Z"></path><path class="cls-3" d="M54.85,27.13v31.28H12.98v-31.28h41.87Z"></path><path class="cls-3" d="M39.95,30.4v7.67h-12.19v-7.67h12.19Z"></path><path class="cls-1" d="M63.26,13.13c.54,0,.97.41.97.92s-.44.92-.97.92-.97-.41-.97-.92.43-.92.97-.92Z"></path><rect class="cls-3" x="29.16" y="18.24" width="31.08" height="3.88"></rect><path class="cls-3" d="M60.24,17.83v.41h-31.08v-3.88h27.41c2.05,0,3.67,1.53,3.67,3.48Z"></path><path class="cls-3" d="M52.47,4.85c1.73,0,3.02,1.33,3.02,2.86,0,1.64-1.4,2.86-3.02,2.86s-3.02-1.33-3.02-2.86c0-1.64,1.3-2.86,3.02-2.86Z"></path><rect class="cls-3" x="39.95" y="30.4" width="11.44" height="7.67"></rect><path class="cls-3" d="M47.29,58.51c-1.83,3.07-5.29,5.11-9.28,5.11-3.02,0-5.61-1.12-7.66-2.96-.65-.61-1.3-1.33-1.73-2.15-.86-1.53-1.4-3.27-1.4-5.11v-4.5c0-.92.86-1.74,1.83-1.74h2.16v-9.51c0-1.43,1.19-2.56,2.7-2.56.76,0,1.4.31,1.94.72.43.51.76,1.12.76,1.84v7.26h12.19v8.48c-.11,1.84-.54,3.58-1.51,5.11Z"></path><path class="cls-1" d="M42.98,8.02c.54,0,.97.41.97.92s-.43.92-.97.92-.97-.41-.97-.92.43-.92.97-.92Z"></path><path class="cls-1" d="M30.89,10.57c.54,0,.97.41.97.92s-.44.92-.97.92-.97-.41-.97-.92.43-.92.97-.92Z"></path><path class="cls-3" d="M29.16,22.02H7.58v-4.19c0-1.94,1.62-3.48,3.67-3.48h17.91v7.67Z"></path><rect class="cls-3" x="16.32" y="30.4" width="11.44" height="7.67"></rect><path class="cls-1" d="M24.09,6.79c.54,0,.97.41.97.92s-.43.92-.97.92-.97-.41-.97-.92.43-.92.97-.92Z"></path><path class="cls-1" d="M21.07,16.91c.76,0,1.4.61,1.4,1.33s-.65,1.33-1.4,1.33-1.4-.61-1.4-1.33.65-1.33,1.4-1.33Z"></path><path class="cls-1" d="M17.08,16.91c.76,0,1.4.61,1.4,1.33s-.65,1.33-1.4,1.33-1.4-.61-1.4-1.33.65-1.33,1.4-1.33Z"></path><path class="cls-3" d="M15.03,7.4c1.08,0,2.05.82,2.05,1.94,0,1.02-.86,1.94-2.05,1.94s-2.05-.82-2.05-1.94.97-1.94,2.05-1.94Z"></path><path class="cls-1" d="M12.98,16.91c.76,0,1.4.61,1.4,1.33s-.65,1.33-1.4,1.33-1.4-.61-1.4-1.33.65-1.33,1.4-1.33Z"></path><path class="cls-1" d="M5.21,13.13c.54,0,.97.41.97.92s-.44.92-.97.92-.97-.41-.97-.92.43-.92.97-.92Z"></path><path class="cls-1" d="M60.24,22.74H7.58c-.32,0-.65-.31-.65-.61s.32-.61.65-.61h52.66c.32,0,.65.31.65.61s-.32.61-.65.61Z"></path><path class="cls-1" d="M60.24,18.85h-31.08c-.32,0-.65-.31-.65-.61s.32-.61.65-.61h31.08c.32,0,.65.31.65.61s-.32.61-.65.61Z"></path><path class="cls-1" d="M15.03,11.8c-1.51,0-2.7-1.12-2.7-2.56s1.19-2.56,2.7-2.56,2.7,1.12,2.7,2.56-1.19,2.56-2.7,2.56ZM15.03,8.02c-.76,0-1.4.61-1.4,1.33s.65,1.33,1.4,1.33,1.4-.61,1.4-1.33c-.11-.82-.65-1.33-1.4-1.33Z"></path><path class="cls-1" d="M52.47,11.19c-2.05,0-3.67-1.53-3.67-3.48s1.62-3.48,3.67-3.48,3.67,1.53,3.67,3.48-1.62,3.48-3.67,3.48ZM52.47,5.46c-1.3,0-2.37,1.02-2.37,2.25s1.08,2.25,2.37,2.25,2.37-1.02,2.37-2.25-1.08-2.25-2.37-2.25Z"></path><path class="cls-1" d="M29.16,22.74c-.32,0-.65-.31-.65-.61v-7.67c0-.31.32-.61.65-.61s.65.31.65.61v7.67c0,.31-.22.61-.65.61Z"></path><path class="cls-1" d="M56.57,64.24H11.25c-2.37,0-4.32-1.84-4.32-4.09V17.83c0-2.25,1.94-4.09,4.32-4.09h45.32c2.37,0,4.32,1.84,4.32,4.09v42.32c0,2.25-1.94,4.09-4.32,4.09ZM11.25,15.07c-1.62,0-3.02,1.23-3.02,2.86v42.32c0,1.53,1.29,2.86,3.02,2.86h45.32c1.62,0,3.02-1.23,3.02-2.86V17.83c0-1.53-1.3-2.86-3.02-2.86H11.25v.1Z"></path><path class="cls-1" d="M54.85,59.12h-7.55c-.32,0-.65-.31-.65-.61s.32-.61.65-.61h6.8v-30.05H13.62v30.05h15c.32,0,.65.31.65.61s-.32.61-.65.61h-15.65c-.32,0-.65-.31-.65-.61v-31.38c0-.31.32-.61.65-.61h41.87c.32,0,.65.31.65.61v31.28c0,.41-.32.72-.65.72Z"></path><path class="cls-1" d="M27.87,38.68h-11.55c-.32,0-.65-.31-.65-.61v-7.67c0-.31.32-.61.65-.61h11.44c.32,0,.65.31.65.61s-.32.61-.65.61h-10.79v6.44h10.79c.32,0,.65.31.65.61s-.22.61-.54.61Z"></path><path class="cls-1" d="M39.95,38.68h-3.35c-.32,0-.65-.31-.65-.61s.32-.61.65-.61h3.35c.32,0,.65.31.65.61s-.22.61-.65.61Z"></path><path class="cls-1" d="M31.21,38.68h-3.35c-.32,0-.65-.31-.65-.61v-7.67c0-.31.32-.61.65-.61h12.19c.32,0,.65.31.65.61s-.32.61-.65.61h-11.55v6.44h2.7c.32,0,.65.31.65.61s-.32.61-.65.61Z"></path><path class="cls-1" d="M51.39,38.68h-11.44c-.32,0-.65-.31-.65-.61v-7.67c0-.31.32-.61.65-.61h11.44c.32,0,.65.31.65.61v7.67c.11.31-.22.61-.65.61ZM40.6,37.35h10.14v-6.44h-10.14v6.44Z"></path><path class="cls-1" d="M31.21,52.99c-.32,0-.65-.31-.65-.61v-5.21c0-.31.32-.61.65-.61s.65.31.65.61v5.21c0,.41-.22.61-.65.61Z"></path><path class="cls-1" d="M36.61,57.39c-.32,0-.65-.31-.65-.61v-8.48c0-.31.32-.61.65-.61s.65.31.65.61v8.48c0,.31-.22.61-.65.61Z"></path><path class="cls-1" d="M40.17,57.39c-.32,0-.65-.31-.65-.61v-6.85c0-.31.32-.61.65-.61s.65.31.65.61v6.85c.11.31-.22.61-.65.61Z"></path><path class="cls-1" d="M43.84,57.39c-.32,0-.65-.31-.65-.61v-5.11c0-.31.32-.61.65-.61s.65.31.65.61v5.11c0,.31-.32.61-.65.61Z"></path><path class="cls-1" d="M38.01,64.24c-3.02,0-5.94-1.12-8.09-3.17-.76-.72-1.3-1.43-1.83-2.25-.97-1.64-1.51-3.48-1.51-5.42v-4.5c0-1.33,1.08-2.35,2.48-2.35h1.51v-8.89c0-1.74,1.51-3.17,3.35-3.17.86,0,1.73.31,2.37.92s.97,1.43.97,2.25v6.64h11.44c.32,0,.65.31.65.61v8.48c0,1.94-.54,3.78-1.51,5.42-1.94,3.27-5.83,5.42-9.82,5.42ZM29.06,47.78c-.65,0-1.19.51-1.19,1.12v4.5c0,1.64.43,3.27,1.29,4.8.43.72.97,1.43,1.62,1.94,1.94,1.84,4.42,2.76,7.12,2.76,3.56,0,6.91-1.84,8.74-4.8.86-1.43,1.3-3.07,1.3-4.8v-7.87h-11.33c-.32,0-.65-.31-.65-.61v-7.26c0-.51-.22-1.02-.54-1.33-.32-.41-.86-.51-1.4-.51-1.08,0-2.05.82-2.05,1.94v9.51c0,.31-.32.61-.65.61h-2.27Z"></path></g></g></g></g></svg>