<svg xmlns="http://www.w3.org/2000/svg" xmlns:xlink="http://www.w3.org/1999/xlink" id="Layer_2" data-name="Layer 2" viewBox="0 0 68.47 68.47"><defs><style>      .cls-1 {        fill: #1e81ce;      }      .cls-1, .cls-2, .cls-3, .cls-4 {        stroke-width: 0px;      }      .cls-2 {        fill: none;      }      .cls-3 {        fill: #fff;      }      .cls-4 {        fill: #9bc9ff;      }      .cls-5 {        clip-path: url(#clippath);      }    </style><clipPath id="clippath"><rect class="cls-2" width="68.47" height="68.47"></rect></clipPath></defs><g id="Layer_1-2" data-name="Layer 1"><g class="cls-5"><g id="_76_Brain_Gear_Mind_Setting" data-name="76, Brain, Gear, Mind, Setting"><g><path class="cls-4" d="M60.1,30.3c1.85,0,3.38,1.62,3.38,3.59s-1.52,3.59-3.38,3.59-3.38-1.62-3.38-3.59c-.11-1.97,1.42-3.59,3.38-3.59Z"></path><path class="cls-4" d="M8.37,49.06c1.85,0,3.38,1.62,3.38,3.59s-1.52,3.59-3.38,3.59-3.38-1.62-3.38-3.59,1.42-3.59,3.38-3.59Z"></path><path class="cls-3" d="M46.27,12.58c3.48,0,6.32,3.01,6.32,6.72s-2.83,6.72-6.32,6.72-6.32-3.01-6.32-6.72,2.83-6.72,6.32-6.72ZM49.64,19.29c0-1.97-1.52-3.59-3.38-3.59s-3.38,1.62-3.38,3.59,1.53,3.59,3.38,3.59,3.38-1.62,3.38-3.59Z"></path><path class="cls-4" d="M58.46,16.98v4.63l-2.72.23c-.22.93-.54,1.85-1.09,2.66l1.74,2.2-3.05,3.24-2.07-1.85h0c-.76.46-1.63.81-2.51,1.04l-.22,2.9h-4.36l-.22-2.9c-.87-.23-1.74-.58-2.5-1.16l-2.07,1.85-3.16-3.13,1.74-2.2c-.44-.81-.87-1.74-1.09-2.66l-2.72-.23v-4.63l2.72-.23c.22-.93.54-1.85,1.09-2.66l-1.74-2.2,3.05-3.24,2.07,1.85c.76-.46,1.63-.93,2.5-1.16l.11-.81.11-2.2h4.36l.22,2.9c.87.23,1.74.58,2.5,1.16l2.07-1.85,3.05,3.24-1.63,2.2c.44.81.87,1.74,1.09,2.66l2.72.35ZM52.58,19.29c0-3.71-2.83-6.72-6.32-6.72s-6.32,3.01-6.32,6.72,2.83,6.72,6.32,6.72,6.32-3.01,6.32-6.72Z"></path><path class="cls-1" d="M60.42,44.78c.54,0,.98.47.98,1.04s-.44,1.04-.98,1.04-.98-.47-.98-1.04.44-1.04.98-1.04Z"></path><path class="cls-1" d="M59.66,6.44c.54,0,.98.47.98,1.04s-.44,1.04-.98,1.04-.98-.47-.98-1.04.44-1.04.98-1.04Z"></path><path class="cls-1" d="M55.31,62.15c.54,0,.98.47.98,1.04s-.44,1.04-.98,1.04-.98-.47-.98-1.04.44-1.04.98-1.04Z"></path><polygon class="cls-3" points="51.17 52.65 51.17 62.85 26.67 62.85 51.17 52.65"></polygon><polygon class="cls-4" points="51.17 48.37 51.17 52.65 26.67 62.85 26.67 58.44 51.17 48.37"></polygon><path class="cls-3" d="M51.17,28.1v20.27l-24.5,10.19v-8.69h-8.17v-14.48h-6.86l2.72-11.58c0-10.43,7.84-18.88,17.75-18.88h1.42c3.92,0,7.51,1.39,10.45,3.59l-.11.81c-.87.23-1.74.58-2.5,1.16l-2.07-1.85-3.05,3.24,1.74,2.09c-.44.81-.87,1.74-1.09,2.66l-2.72.23v4.63l2.72.23c.22.93.54,1.85,1.09,2.66l-1.74,2.32,3.05,3.24,2.07-1.85c.76.46,1.63.93,2.5,1.16l.22,2.9h4.36l.22-2.9c.87-.35,1.74-.7,2.5-1.16Z"></path><path class="cls-1" d="M19.59,59.25c.54,0,.98.47.98,1.04s-.44,1.04-.98,1.04-.98-.47-.98-1.04.44-1.04.98-1.04Z"></path><path class="cls-1" d="M14.14,4.24c.54,0,.98.47.98,1.04s-.44,1.04-.98,1.04-.98-.47-.98-1.04.44-1.04.98-1.04Z"></path><path class="cls-1" d="M12.73,41.19c.54,0,.98.47.98,1.04s-.44,1.04-.98,1.04-.98-.47-.98-1.04.44-1.04.98-1.04Z"></path><path class="cls-1" d="M6.63,21.61c.54,0,.98.47.98,1.04s-.44,1.04-.98,1.04-.98-.47-.98-1.04.44-1.04.98-1.04Z"></path><path class="cls-1" d="M26.67,63.54c-.33,0-.54-.23-.65-.46-.11-.35,0-.81.44-.93l24.5-10.19c.33-.12.76,0,.87.46.11.35,0,.81-.44.93l-24.5,10.19h-.22Z"></path><path class="cls-1" d="M26.67,59.25c-.33,0-.54-.23-.65-.46-.11-.35,0-.81.44-.93l24.5-10.08c.33-.12.76,0,.87.46.11.35,0,.81-.44.93l-24.39,9.96c-.11,0-.22.12-.33.12Z"></path><path class="cls-1" d="M8.37,57.05c-2.29,0-4.14-1.97-4.14-4.4s1.85-4.4,4.14-4.4,4.14,1.97,4.14,4.4c-.11,2.43-1.96,4.4-4.14,4.4ZM8.37,49.76c-1.53,0-2.72,1.27-2.72,2.9s1.2,2.9,2.72,2.9,2.72-1.27,2.72-2.9c0-1.51-1.31-2.9-2.72-2.9Z"></path><path class="cls-1" d="M51.17,63.54h-24.5c-.33,0-.65-.35-.65-.7v-12.28h-7.51c-.33,0-.65-.35-.65-.7v-13.78h-6.1c-.22,0-.44-.12-.54-.23-.11-.23-.22-.35-.11-.58l2.72-11.47c0-5.21,1.96-10.08,5.34-13.78,3.48-3.71,8.06-5.68,13.07-5.68h1.42c3.92,0,7.73,1.27,10.89,3.71.33.23.33.69.11,1.04-.22.35-.65.35-.98.12-2.94-2.32-6.42-3.48-10.02-3.48h-1.42c-9.37,0-16.99,8.11-16.99,18.07v.23l-2.5,10.66h5.88c.33,0,.65.35.65.7v13.78h7.51c.33,0,.65.35.65.69v12.28h23.19V28.1c0-.35.33-.69.65-.69s.65.35.65.69v34.75c0,.35-.33.7-.76.7Z"></path><path class="cls-1" d="M48.45,32.85h-4.36c-.33,0-.65-.35-.65-.69l-.22-2.43c-.65-.23-1.2-.46-1.85-.81l-1.74,1.62c-.22.23-.65.23-.87,0l-3.05-3.24c-.22-.23-.22-.7,0-.93l1.53-1.85c-.33-.58-.55-1.27-.76-1.97l-2.29-.23c-.33,0-.65-.35-.65-.7v-4.63c0-.35.33-.69.65-.69l2.29-.23c.22-.7.44-1.27.76-1.97l-1.53-1.85c-.22-.23-.22-.7,0-.93l3.05-3.24c.22-.23.65-.23.87,0l1.74,1.62c.54-.35,1.2-.58,1.85-.81l.22-2.43c0-.35.33-.69.65-.69h4.36c.33,0,.65.35.65.69l.22,2.43c.65.23,1.2.46,1.85.81l1.74-1.62c.22-.23.65-.23.87,0l3.05,3.24c.22.23.22.69,0,.93l-1.42,1.85c.33.58.54,1.27.76,1.97l2.29.23c.33,0,.65.35.65.69v4.63c0,.35-.33.69-.65.69l-2.29.23c-.22.7-.44,1.27-.76,1.97l1.52,1.85c.22.23.22.69,0,.93l-3.05,3.24c-.22.23-.65.23-.87,0l-1.74-1.62c-.54.35-1.2.58-1.85.81l-.22,2.43c-.11.46-.44.69-.76.69ZM44.74,31.46h3.05l.22-2.32c0-.35.22-.58.54-.7.76-.23,1.63-.58,2.29-1.04h.11c.22-.12.54-.12.76.12l1.63,1.51,2.18-2.32-1.42-1.74c-.22-.23-.22-.58-.11-.81.44-.81.76-1.62.98-2.55.11-.35.33-.46.65-.58l2.18-.23v-3.24l-2.18-.23c-.33,0-.55-.23-.65-.58-.22-.93-.54-1.74-.98-2.55-.11-.23-.11-.58.11-.81l1.42-1.74-2.18-2.32-1.63,1.51c-.22.23-.54.23-.76.12-.76-.46-1.52-.81-2.4-1.04-.33-.12-.44-.35-.54-.69l-.22-2.32h-3.05l-.11,1.51h0v.93c0,.35-.22.58-.54.69-.87.23-1.63.58-2.4,1.04-.22.12-.55.12-.76-.12l-1.63-1.51-2.18,2.32,1.42,1.74c.22.23.22.58.11.81-.44.81-.76,1.62-.98,2.55-.11.35-.33.46-.65.58l-2.18.23v3.24l2.18.23c.33,0,.54.23.65.58.22.93.54,1.74.98,2.55.11.23.11.58-.11.81l-1.42,1.62,2.18,2.32,1.63-1.51c.22-.23.54-.23.76-.12.76.46,1.52.81,2.4,1.04.33.12.44.35.54.7l.11,2.32Z"></path><path class="cls-1" d="M46.27,26.71c-3.81,0-6.97-3.36-6.97-7.41s3.16-7.41,6.97-7.41,6.97,3.36,6.97,7.41-3.05,7.41-6.97,7.41ZM46.27,13.27c-3.16,0-5.66,2.66-5.66,6.02s2.51,6.02,5.66,6.02,5.66-2.66,5.66-6.02-2.5-6.02-5.66-6.02Z"></path><path class="cls-1" d="M46.27,23.58c-2.29,0-4.03-1.97-4.03-4.29,0-2.43,1.85-4.29,4.03-4.29,2.29,0,4.03,1.97,4.03,4.29.11,2.32-1.74,4.29-4.03,4.29ZM46.27,16.4c-1.53,0-2.72,1.27-2.72,2.9s1.2,2.9,2.72,2.9,2.72-1.27,2.72-2.9-1.2-2.9-2.72-2.9Z"></path><path class="cls-1" d="M60.1,38.17c-2.29,0-4.14-1.97-4.14-4.4s1.85-4.4,4.14-4.4,4.14,1.97,4.14,4.4c-.11,2.55-1.96,4.4-4.14,4.4ZM60.1,30.99c-1.52,0-2.72,1.27-2.72,2.9s1.2,2.9,2.72,2.9,2.72-1.27,2.72-2.9-1.31-2.9-2.72-2.9Z"></path></g></g></g></g></svg>