<svg xmlns="http://www.w3.org/2000/svg" xmlns:xlink="http://www.w3.org/1999/xlink" id="Layer_2" data-name="Layer 2" viewBox="0 0 68.47 68.47"><defs><style>      .cls-1 {        fill: #1e81ce;      }      .cls-1, .cls-2, .cls-3, .cls-4 {        stroke-width: 0px;      }      .cls-2 {        fill: none;      }      .cls-3 {        fill: #fff;      }      .cls-4 {        fill: #9bc9ff;      }      .cls-5 {        clip-path: url(#clippath);      }    </style><clipPath id="clippath"><rect class="cls-2" width="68.47" height="68.47"></rect></clipPath></defs><g id="Layer_1-2" data-name="Layer 1"><g class="cls-5"><g id="_96_Friends_People_Social_Media_Team" data-name="96, Friends, People, Social Media, Team"><g><path class="cls-3" d="M63.57,15.47v4.47h-30.05c-2.43,0-4.53-1.96-4.53-4.47s1.99-4.47,4.53-4.47h25.52c2.43.11,4.53,2.07,4.53,4.47Z"></path><path class="cls-1" d="M61.8,4.24c.55,0,.99.44.99.98s-.44.98-.99.98-.99-.44-.99-.98.45-.98.99-.98Z"></path><path class="cls-1" d="M61.14,32.27c.55,0,.99.44.99.98s-.45.98-.99.98-.99-.44-.99-.98.45-.98.99-.98Z"></path><path class="cls-4" d="M60.37,47.87c0,1.85-.66,3.71-1.66,5.13h0c-1.66-2.29-4.31-3.71-7.29-3.71,1.88,0,3.42-1.53,3.42-3.38s-1.55-3.49-3.42-3.49-3.43,1.53-3.43,3.38,1.55,3.38,3.43,3.38c-2.98,0-5.75,1.53-7.29,3.71h0c-.99-1.42-1.66-3.16-1.66-5.13,0-4.91,3.98-8.84,8.95-8.84s8.95,4.04,8.95,8.95Z"></path><path class="cls-3" d="M58.71,53h0c-1.66,2.29-4.31,3.71-7.29,3.71s-5.75-1.53-7.29-3.71h0c1.66-2.29,4.31-3.71,7.29-3.71s5.63,1.42,7.29,3.71Z"></path><path class="cls-4" d="M59.37,25.07c0,2.84-2.32,5.13-5.19,5.13H17.61l-7.29,4.8v-9.93c0-2.84,2.32-5.13,5.19-5.13h38.67c2.87,0,5.19,2.29,5.19,5.13Z"></path><path class="cls-1" d="M54.95,60.85c.55,0,1,.44,1,.98s-.45.98-1,.98-.99-.44-.99-.98.45-.98.99-.98Z"></path><path class="cls-3" d="M51.42,42.42c1.88,0,3.42,1.53,3.42,3.38s-1.55,3.38-3.42,3.38-3.43-1.53-3.43-3.38,1.44-3.38,3.43-3.38Z"></path><path class="cls-3" d="M39.37,58.13c1.55,0,2.76,1.2,2.76,2.73s-1.21,2.73-2.76,2.73-2.76-1.2-2.76-2.73,1.22-2.73,2.76-2.73Z"></path><path class="cls-4" d="M42.8,43.84c0,1.85-.66,3.71-1.66,5.13h0c-1.66-2.29-4.31-3.71-7.29-3.71,1.88,0,3.43-1.53,3.43-3.38s-1.55-3.38-3.43-3.38-3.42,1.53-3.42,3.38,1.55,3.38,3.42,3.38c-2.98,0-5.75,1.53-7.29,3.71h0c-.99-1.42-1.66-3.16-1.66-5.13,0-4.91,3.98-8.84,8.95-8.84s8.95,3.93,8.95,8.84Z"></path><path class="cls-3" d="M41.14,48.85h0c-1.66,2.29-4.31,3.71-7.29,3.71s-5.75-1.42-7.29-3.71h0c1.66-2.29,4.31-3.71,7.29-3.71s5.64,1.53,7.29,3.71Z"></path><path class="cls-3" d="M33.85,38.38c1.88,0,3.43,1.53,3.43,3.38s-1.55,3.38-3.43,3.38-3.42-1.53-3.42-3.38,1.55-3.38,3.42-3.38Z"></path><path class="cls-1" d="M29.32,58.13c.55,0,1,.44,1,.98s-.45.98-1,.98-.99-.44-.99-.98.45-.98.99-.98Z"></path><path class="cls-1" d="M26.56,5.65c.55,0,.99.44.99.98s-.45.98-.99.98-.99-.44-.99-.98.45-.98.99-.98Z"></path><path class="cls-4" d="M25.23,47.87c0,1.85-.66,3.71-1.66,5.13h0c-1.66-2.29-4.31-3.71-7.29-3.71,1.88,0,3.42-1.53,3.42-3.38s-1.55-3.49-3.42-3.49-3.43,1.53-3.43,3.38,1.55,3.38,3.43,3.38c-2.98,0-5.75,1.53-7.29,3.71h0c-.99-1.42-1.66-3.16-1.66-5.13,0-4.91,3.98-8.84,8.95-8.84,4.97.11,8.95,4.04,8.95,8.95Z"></path><path class="cls-3" d="M23.57,53h0c-1.66,2.29-4.31,3.71-7.29,3.71s-5.75-1.53-7.29-3.71h0c1.66-2.29,4.31-3.71,7.29-3.71s5.75,1.42,7.29,3.71Z"></path><path class="cls-3" d="M16.28,42.42c1.88,0,3.42,1.53,3.42,3.38s-1.55,3.38-3.42,3.38-3.43-1.53-3.43-3.38,1.55-3.38,3.43-3.38Z"></path><path class="cls-3" d="M13.08,6.31c2.26,0,4.09,1.81,4.09,4.04s-1.83,4.04-4.09,4.04-4.09-1.81-4.09-4.04,1.83-4.04,4.09-4.04Z"></path><path class="cls-1" d="M5.23,33.58c.55,0,.99.44.99.98s-.45.98-.99.98-1-.44-1-.98.45-.98,1-.98Z"></path><path class="cls-1" d="M23.57,53.65c-.22,0-.44-.11-.55-.33-1.55-2.18-4.09-3.49-6.74-3.49s-5.19,1.31-6.74,3.49c-.22.33-.66.33-.99.11-.33-.11-.33-.55-.11-.87,1.77-2.51,4.75-4.04,7.85-4.04s6.08,1.53,7.85,4.04c.22.33.11.76-.11.98-.11.11-.22.11-.44.11Z"></path><path class="cls-1" d="M16.28,49.94c-2.32,0-4.2-1.85-4.2-4.15s1.88-4.15,4.2-4.15,4.2,1.85,4.2,4.15-1.88,4.15-4.2,4.15ZM16.28,43.07c-1.55,0-2.76,1.2-2.76,2.73s1.21,2.73,2.76,2.73,2.76-1.2,2.76-2.73-1.22-2.73-2.76-2.73Z"></path><path class="cls-1" d="M41.14,49.62c-.22,0-.44-.11-.55-.33-1.55-2.18-4.09-3.49-6.74-3.49s-5.19,1.31-6.74,3.49c-.22.33-.66.33-.99.11-.33-.22-.33-.65-.11-.98,1.77-2.51,4.75-4.04,7.85-4.04s6.08,1.53,7.85,4.04c.22.33.11.76-.11.98-.11.11-.33.22-.44.22Z"></path><path class="cls-1" d="M33.85,45.8c-2.32,0-4.2-1.85-4.2-4.15s1.88-4.15,4.2-4.15,4.2,1.85,4.2,4.15-1.88,4.15-4.2,4.15ZM33.85,39.04c-1.55,0-2.76,1.2-2.76,2.73s1.22,2.73,2.76,2.73,2.76-1.2,2.76-2.73-1.21-2.73-2.76-2.73Z"></path><path class="cls-1" d="M58.71,53.65c-.22,0-.44-.11-.55-.33-1.55-2.18-4.09-3.49-6.74-3.49s-5.19,1.31-6.74,3.49c-.22.33-.66.33-.99.11-.33-.22-.33-.65-.11-.98,1.77-2.51,4.75-4.04,7.85-4.04s6.08,1.53,7.85,4.04c.22.33.11.76-.11.98-.22.22-.33.22-.44.22Z"></path><path class="cls-1" d="M51.42,49.94c-2.32,0-4.2-1.85-4.2-4.15s1.88-4.15,4.2-4.15,4.2,1.85,4.2,4.15-1.99,4.15-4.2,4.15ZM51.42,43.07c-1.55,0-2.76,1.2-2.76,2.73s1.21,2.73,2.76,2.73,2.76-1.2,2.76-2.73-1.33-2.73-2.76-2.73Z"></path><path class="cls-1" d="M16.28,57.47c-3.09,0-6.08-1.53-7.85-4.04h0c-1.11-1.64-1.77-3.49-1.77-5.45,0-5.24,4.31-9.6,9.72-9.6s9.72,4.25,9.72,9.6c0,1.96-.66,3.93-1.77,5.45-1.99,2.51-4.97,4.04-8.07,4.04ZM9.54,52.56c1.55,2.18,4.09,3.49,6.74,3.49s5.19-1.31,6.74-3.49c.99-1.42,1.55-3.05,1.55-4.69,0-4.47-3.76-8.18-8.29-8.18s-8.29,3.71-8.29,8.18c0,1.75.55,3.38,1.55,4.69h0Z"></path><path class="cls-1" d="M33.85,53.33c-3.09,0-6.08-1.53-7.85-4.04h0c-1.1-1.64-1.77-3.49-1.77-5.45,0-5.24,4.31-9.6,9.72-9.6s9.72,4.25,9.72,9.6c0,1.96-.66,3.93-1.77,5.45-1.99,2.51-4.97,4.04-8.07,4.04ZM27.11,48.53c1.55,2.18,4.09,3.49,6.74,3.49s5.19-1.31,6.74-3.49c.99-1.42,1.55-3.05,1.55-4.69,0-4.47-3.76-8.18-8.29-8.18s-8.29,3.71-8.29,8.18c0,1.64.55,3.27,1.55,4.69h0Z"></path><path class="cls-1" d="M51.42,57.47c-3.09,0-6.08-1.53-7.85-4.04h0c-1.1-1.64-1.77-3.49-1.77-5.45,0-5.24,4.31-9.6,9.61-9.6s9.72,4.25,9.72,9.6c0,1.96-.66,3.93-1.77,5.45-1.88,2.51-4.86,4.04-7.96,4.04ZM44.57,52.56c1.55,2.18,4.09,3.49,6.74,3.49s5.19-1.31,6.74-3.49c.99-1.42,1.55-3.05,1.55-4.69,0-4.47-3.76-8.18-8.29-8.18s-8.29,3.71-8.29,8.18c.11,1.75.55,3.38,1.55,4.69h0Z"></path><path class="cls-1" d="M63.57,20.6h-9.28c-.33,0-.66-.33-.66-.65s.33-.65.66-.65h8.62v-3.71c0-2.07-1.66-3.71-3.76-3.71h-25.63c-1,0-1.99.44-2.65,1.09-.66.65-1.11,1.64-1.11,2.62,0,2.07,1.66,3.71,3.76,3.71.33,0,.66.33.66.65s-.33.65-.66.65c-2.87,0-5.19-2.29-5.19-5.13,0-1.42.55-2.62,1.55-3.6.99-.98,2.32-1.53,3.65-1.53h25.52c2.87,0,5.19,2.29,5.19,5.13v4.47c0,.33-.33.65-.66.65Z"></path><path class="cls-1" d="M10.31,35.65c-.11,0-.22,0-.33-.11-.22-.11-.33-.33-.33-.65v-9.93c0-3.16,2.65-5.78,5.86-5.78h38.67c1.55,0,3.09.65,4.2,1.75,1.1,1.09,1.77,2.51,1.77,4.15,0,3.16-2.65,5.78-5.86,5.78H17.83l-7.07,4.69c-.11,0-.22.11-.44.11ZM15.51,20.6c-2.43,0-4.53,1.96-4.53,4.47v8.62l6.19-4.04c.11-.11.22-.11.33-.11h36.57c2.43,0,4.53-1.96,4.53-4.47,0-1.2-.44-2.29-1.33-3.16s-1.99-1.31-3.2-1.31H15.51Z"></path><path class="cls-1" d="M13.08,15.14c-2.65,0-4.86-2.18-4.86-4.8s2.21-4.8,4.86-4.8,4.86,2.18,4.86,4.8-2.21,4.8-4.86,4.8ZM13.08,6.96c-1.88,0-3.43,1.53-3.43,3.38s1.55,3.38,3.43,3.38,3.42-1.53,3.42-3.38c.11-1.85-1.44-3.38-3.42-3.38Z"></path><path class="cls-1" d="M39.37,64.24c-1.88,0-3.42-1.53-3.42-3.38s1.55-3.38,3.42-3.38,3.43,1.53,3.43,3.38-1.55,3.38-3.43,3.38ZM39.37,58.78c-1.1,0-2.1.87-2.1,2.07,0,1.09.88,2.07,2.1,2.07s2.1-.87,2.1-2.07-.99-2.07-2.1-2.07Z"></path></g></g></g></g></svg>