<svg xmlns="http://www.w3.org/2000/svg" xmlns:xlink="http://www.w3.org/1999/xlink" id="Layer_2" data-name="Layer 2" viewBox="0 0 68.47 68.47"><defs><style>      .cls-1 {        fill: #1e81ce;      }      .cls-1, .cls-2, .cls-3, .cls-4 {        stroke-width: 0px;      }      .cls-2 {        fill: none;      }      .cls-3 {        fill: #fff;      }      .cls-4 {        fill: #9bc9ff;      }      .cls-5 {        clip-path: url(#clippath);      }    </style><clipPath id="clippath"><rect class="cls-2" width="68.47" height="68.47"></rect></clipPath></defs><g id="Layer_1-2" data-name="Layer 1"><g class="cls-5"><g id="_84_Award_Badge_Quality" data-name="84, Award, Badge, Quality"><g><path class="cls-3" d="M60.04,8.43c1.87,0,3.42,1.54,3.42,3.42s-1.54,3.42-3.42,3.42-3.42-1.54-3.42-3.42,1.54-3.42,3.42-3.42Z"></path><path class="cls-1" d="M61.15,43.61c.55,0,.99.44.99.99s-.44.99-.99.99-.99-.44-.99-.99.44-.99.99-.99Z"></path><path class="cls-1" d="M56.29,61.48c.55,0,.99.44.99.99s-.44.99-.99.99-.99-.44-.99-.99.44-.99.99-.99Z"></path><path class="cls-4" d="M22.21,42.73l-2.65-.99c-2.1-.77-3.42-2.98-2.98-5.18l.44-2.76c.22-1.1,0-2.21-.55-3.2l-1.43-2.43c-1.1-1.98-.66-4.52.99-5.96l2.1-1.76c.88-.66,1.43-1.65,1.65-2.76l.44-2.76c.44-2.21,2.32-3.86,4.63-3.86h2.76c1.1,0,2.21-.44,2.98-1.1l2.1-1.76c1.76-1.43,4.3-1.43,6.07,0l2.1,1.76c.88.66,1.87,1.1,2.98,1.1h3.09c2.32,0,4.19,1.65,4.63,3.86l.44,2.76c.22,1.1.77,2.1,1.65,2.76l2.1,1.76c1.76,1.43,2.21,3.97.99,5.96l-1.43,2.43c-.55.99-.77,2.1-.55,3.2l.44,2.76c.44,2.2-.88,4.41-2.98,5.18l-2.65.99c-1.1.44-1.87,1.1-2.43,2.1l-1.32,2.43c-1.1,1.98-3.53,2.87-5.63,2.1l-2.65-.99c-.99-.33-2.21-.33-3.2,0l-2.65.99c-2.1.77-4.52-.11-5.63-2.1l-1.43-2.43c-.44-.88-1.32-1.65-2.43-2.1Z"></path><path class="cls-3" d="M47.25,44.71l7.17,12.35-8.71-1.65-3.53,8.05-6.29-11.91-6.29,11.91-3.53-8.05-8.71,1.65,7.28-12.35s0-.11,1.43,2.54c1.1,1.98,3.53,2.87,5.63,2.1l2.65-.99c.99-.33,2.21-.33,3.2,0l2.65.99c2.1.77,4.52-.11,5.63-2.1,1.43-2.54,1.43-2.43,1.43-2.54Z"></path><path class="cls-1" d="M52.21,5.67c.55,0,.99.44.99.99s-.44.99-.99.99-.99-.44-.99-.99.44-.99.99-.99Z"></path><path class="cls-3" d="M36,15.48c7.28,0,13.12,5.85,13.12,13.13s-5.85,13.13-13.12,13.13-13.13-5.85-13.13-13.13,5.85-13.13,13.13-13.13Z"></path><polygon class="cls-4" points="42.84 26.4 38.54 29.38 40.19 34.35 36 31.37 31.7 34.35 33.35 29.38 29.16 26.4 34.35 26.4 36 21.33 37.54 26.4 42.84 26.4"></polygon><path class="cls-1" d="M21.88,62.14c.55,0,.99.44.99.99s-.44.99-.99.99-.99-.44-.99-.99.44-.99.99-.99Z"></path><path class="cls-1" d="M17.03,4.24c.55,0,.99.44.99.99s-.44.99-.99.99-.99-.44-.99-.99.44-.99.99-.99Z"></path><path class="cls-3" d="M9.09,47.69c2.25,0,4.08,1.83,4.08,4.08s-1.83,4.08-4.08,4.08-4.08-1.83-4.08-4.08,1.83-4.08,4.08-4.08Z"></path><path class="cls-1" d="M10.08,38.1c.55,0,.99.44.99.99s-.44.99-.99.99-.99-.44-.99-.99.44-.99.99-.99Z"></path><path class="cls-1" d="M7.32,21.55c.55,0,.99.44.99.99s-.44.99-.99.99-.99-.44-.99-.99.44-.99.99-.99Z"></path><path class="cls-1" d="M42.29,64.24c-.22,0-.44-.11-.66-.33l-5.63-10.7-5.63,10.7c-.11.22-.33.33-.66.33-.22,0-.55-.22-.55-.44l-3.31-7.61-8.16,1.54c-.22,0-.55-.11-.66-.33-.11-.22-.22-.55,0-.77l7.17-12.35c.22-.33.55-.44.88-.33.33.22.44.55.33.88h0l-6.4,11.03,7.17-1.32c.33-.11.66.11.77.44l2.98,6.73,5.63-10.59c.11-.22.33-.33.66-.33s.44.11.66.33l5.62,10.59,2.98-6.73c.11-.33.44-.44.77-.44l7.17,1.32-6.4-11.03h0c-.22-.33,0-.77.33-.88.33-.22.77,0,.88.33l7.17,12.35c.11.22.11.55,0,.77-.11.22-.44.33-.66.33l-8.16-1.54-3.31,7.61c-.55.22-.77.44-.99.44h0Z"></path><path class="cls-1" d="M30.15,50.23c-1.87,0-3.64-.99-4.63-2.65l-1.43-2.43h0c-.44-.77-1.21-1.32-2.1-1.65l-2.65-.99c-2.43-.88-3.86-3.42-3.42-5.96l.44-2.76c.11-.88,0-1.88-.44-2.65l-1.43-2.43c-1.32-2.32-.77-5.18,1.21-6.84l2.1-1.76c.77-.55,1.21-1.43,1.32-2.32l.44-2.76c.44-2.54,2.65-4.41,5.29-4.41h2.76c.99,0,1.87-.33,2.54-.88l2.1-1.76c1.99-1.65,4.96-1.65,6.95,0l2.1,1.76c.77.55,1.65.88,2.54.88h3.09c2.65,0,4.85,1.87,5.29,4.41l.44,2.76c.11.88.66,1.76,1.32,2.43l2.1,1.76c1.98,1.65,2.54,4.52,1.21,6.84l-1.43,2.43c-.44.77-.66,1.76-.44,2.65l.44,2.76c.44,2.54-.99,5.07-3.42,5.96l-2.65.99c-.88.33-1.54.88-2.1,1.65h0v.11l-1.43,2.43c-1.32,2.32-4.08,3.31-6.51,2.32l-2.65-.99c-.88-.33-1.88-.33-2.76,0l-2.65.99c-.33,0-.99.11-1.54.11ZM25.19,44.38s0,.11.11.11l1.43,2.43c.99,1.65,2.98,2.43,4.85,1.76l2.65-.99c1.21-.44,2.54-.44,3.64,0l2.65.99c1.87.66,3.86-.11,4.85-1.76l1.43-2.43s0-.11.11-.11c.66-.99,1.65-1.87,2.76-2.21l2.65-.99c1.87-.66,2.87-2.54,2.54-4.41l-.44-2.76c-.22-1.21,0-2.54.66-3.64l1.43-2.43c.99-1.65.55-3.86-.88-5.07l-2.1-1.76c-.99-.77-1.65-1.99-1.88-3.2l-.44-2.76c-.33-1.87-1.99-3.31-3.97-3.31h-2.76c-1.21,0-2.54-.44-3.42-1.21l-2.1-1.76c-1.54-1.21-3.64-1.21-5.18,0l-2.1,1.76c-.99.77-2.21,1.21-3.42,1.21h-2.76c-1.99,0-3.64,1.43-3.97,3.31l-.44,2.76c-.22,1.21-.88,2.43-1.88,3.2l-2.1,1.76c-1.54,1.21-1.87,3.42-.88,5.07l.88,2.43c.66,1.1.88,2.43.66,3.64l-.44,2.76c-.33,1.87.77,3.75,2.54,4.41l2.65.99c1.1.33,2.1,1.1,2.65,2.21Z"></path><path class="cls-1" d="M36,42.4c-7.61,0-13.79-6.18-13.79-13.79s6.18-13.79,13.79-13.79,13.79,6.18,13.79,13.79-6.18,13.79-13.79,13.79ZM36,16.15c-6.84,0-12.46,5.51-12.46,12.46s5.51,12.46,12.46,12.46,12.46-5.52,12.46-12.46-5.62-12.46-12.46-12.46Z"></path><path class="cls-1" d="M40.19,35.12c-.11,0-.33,0-.44-.11l-3.86-2.76-3.86,2.76c-.22.22-.55.22-.77,0-.22-.22-.33-.44-.22-.77l1.43-4.52-3.86-2.76c-.22-.22-.33-.44-.22-.77.11-.33.33-.44.66-.44h4.74l1.43-4.52c.11-.33.33-.44.66-.44s.55.22.66.44l1.43,4.52h4.74c.33,0,.55.22.66.44.11.33,0,.55-.22.77l-3.86,2.76,1.43,4.52c.11.33,0,.55-.22.77,0,0-.22.11-.33.11ZM36,30.6c.11,0,.33,0,.44.11l2.54,1.87-.99-2.98c-.11-.33,0-.55.22-.77l2.54-1.87h-3.09c-.33,0-.55-.22-.66-.44l-.99-2.98-.99,2.98c-.11.33-.33.44-.66.44h-3.09l2.54,1.87c.22.22.33.44.22.77l-.99,2.98,2.54-1.87c.11,0,.22-.11.44-.11Z"></path><path class="cls-1" d="M60.04,15.93c-2.32,0-4.19-1.87-4.19-4.19s1.87-4.19,4.19-4.19,4.19,1.87,4.19,4.19-1.87,4.19-4.19,4.19ZM60.04,9.09c-1.54,0-2.76,1.21-2.76,2.76s1.21,2.76,2.76,2.76,2.76-1.21,2.76-2.76-1.21-2.76-2.76-2.76Z"></path><path class="cls-1" d="M9.09,56.63c-2.65,0-4.85-2.21-4.85-4.85s2.21-4.85,4.85-4.85,4.85,2.21,4.85,4.85-2.21,4.85-4.85,4.85ZM9.09,48.35c-1.87,0-3.42,1.54-3.42,3.42s1.54,3.42,3.42,3.42,3.42-1.54,3.42-3.42-1.54-3.42-3.42-3.42Z"></path></g></g></g></g></svg>