<svg xmlns="http://www.w3.org/2000/svg" xmlns:xlink="http://www.w3.org/1999/xlink" id="Layer_2" data-name="Layer 2" viewBox="0 0 68.47 68.47"><defs><style>      .cls-1 {        fill: #1e81ce;      }      .cls-1, .cls-2, .cls-3, .cls-4 {        stroke-width: 0px;      }      .cls-2 {        fill: none;      }      .cls-3 {        fill: #fff;      }      .cls-4 {        fill: #9bc9ff;      }      .cls-5 {        clip-path: url(#clippath);      }    </style><clipPath id="clippath"><rect class="cls-2" width="68.47" height="68.47"></rect></clipPath></defs><g id="Layer_1-2" data-name="Layer 1"><g class="cls-5"><g id="_87_Computer_Finance_Report_Statistics" data-name="87, Computer, Finance, Report, Statistics"><g><path class="cls-3" d="M63.59,16.01v31.81c0,2.27-1.92,4.13-4.27,4.13H9.15c-2.35,0-4.27-1.86-4.27-4.13v-31.81c0-2.27,1.92-4.13,4.27-4.13h50.18c2.35,0,4.27,1.86,4.27,4.13Z"></path><path class="cls-1" d="M61.25,57.11c.53,0,.96.42.96.93s-.43.93-.96.93-.96-.42-.96-.93.43-.93.96-.93Z"></path><path class="cls-1" d="M59.97,6.2c.53,0,.96.42.96.93s-.43.93-.96.93-.96-.42-.96-.93.43-.93.96-.93Z"></path><rect class="cls-3" x="8.93" y="40.28" width="50.71" height="3.92"></rect><path class="cls-4" d="M59.64,40.28H8.93V15.8h50.71v24.48Z"></path><path class="cls-1" d="M52.6,57.83c.53,0,.96.42.96.93s-.43.93-.96.93-.96-.42-.96-.93.43-.93.96-.93Z"></path><path class="cls-1" d="M47.9,4.24c.53,0,.96.42.96.93s-.43.93-.96.93-.96-.42-.96-.93.43-.93.96-.93Z"></path><path class="cls-3" d="M46.94,15.8v20.65h-25.41V4.75h20.71c1.6,1.55,3.1,3,4.7,4.54v6.51Z"></path><path class="cls-4" d="M44.59,60.31c.96,0,1.71.72,1.71,1.65s-.75,1.65-1.71,1.65h-20.71c-.96,0-1.71-.72-1.71-1.65s.75-1.65,1.71-1.65h20.71Z"></path><path class="cls-4" d="M44.27,51.95v.72c0,1.34-1.17,2.48-2.56,2.48h-14.84c-1.39,0-2.56-1.14-2.56-2.48v-.72h19.96Z"></path><rect class="cls-3" x="29.54" y="55.15" width="9.39" height="5.16"></rect><path class="cls-1" d="M35.2,47.2c.21.21.43.52.43.93s-.11.72-.43.93c-.21.21-.53.41-.96.41-.75,0-1.39-.62-1.39-1.34,0-.31.11-.72.43-.93.21-.21.53-.41.96-.41s.75.1.96.41Z"></path><path class="cls-1" d="M20.57,53.91c.53,0,.96.42.96.93s-.43.93-.96.93-.96-.42-.96-.93.43-.93.96-.93Z"></path><path class="cls-3" d="M13.52,55.87c2.18,0,3.95,1.71,3.95,3.82s-1.77,3.82-3.95,3.82-3.95-1.71-3.95-3.82,1.77-3.82,3.95-3.82Z"></path><path class="cls-1" d="M11.92,6.2c.53,0,.96.42.96.93s-.43.93-.96.93-.96-.42-.96-.93.43-.93.96-.93Z"></path><path class="cls-1" d="M5.84,55.87c.53,0,.96.42.96.93s-.43.93-.96.93-.96-.42-.96-.93.43-.93.96-.93Z"></path><path class="cls-1" d="M29.54,55.77h-2.78c-1.81,0-3.31-1.45-3.31-3.2v-.72c0-.31.32-.62.64-.62s.64.31.64.62v.72c0,1.03.85,1.86,1.92,1.86h2.78c.32,0,.64.31.64.62s-.11.72-.53.72Z"></path><path class="cls-1" d="M41.6,55.77h-2.78c-.32,0-.64-.31-.64-.62s.32-.62.64-.62h2.78c1.07,0,1.92-.83,1.92-1.86v-.72c0-.31.32-.62.64-.62s.64.31.64.62v.72c.11,1.76-1.39,3.1-3.2,3.1Z"></path><path class="cls-1" d="M38.93,60.93c-.32,0-.64-.31-.64-.62v-4.54h-8.01v4.54c0,.31-.32.62-.64.62s-.64-.31-.64-.62v-5.16c0-.31.32-.62.64-.62h9.4c.32,0,.64.31.64.62v5.16c-.11.41-.43.62-.75.62Z"></path><path class="cls-1" d="M44.59,64.24h-20.71c-1.28,0-2.35-1.03-2.35-2.27,0-.62.21-1.14.64-1.55.43-.41,1.07-.62,1.6-.62h20.71c1.28,0,2.35,1.03,2.35,2.27,0,.62-.21,1.14-.64,1.55-.43.31-.96.62-1.6.62ZM23.88,60.93c-.32,0-.53.1-.75.31-.21.21-.32.41-.32.72,0,.52.43.93.96.93h20.71c.32,0,.53-.1.75-.31.21-.21.32-.41.32-.72,0-.52-.43-.93-.96-.93h-20.71Z"></path><path class="cls-1" d="M13.52,64.24c-2.56,0-4.7-2.07-4.7-4.54s2.14-4.54,4.7-4.54,4.7,2.07,4.7,4.54-2.14,4.54-4.7,4.54ZM13.52,56.49c-1.81,0-3.31,1.45-3.31,3.2s1.49,3.2,3.31,3.2,3.31-1.45,3.31-3.2-1.49-3.2-3.31-3.2Z"></path><path class="cls-1" d="M59.64,44.82H8.93c-.32,0-.64-.31-.64-.62V15.8c0-.31.32-.62.64-.62h12.7c.32,0,.64.31.64.62s-.32.62-.64.62h-12.06v27.16h49.43v-27.16h-12.06c-.32,0-.64-.31-.64-.62s.32-.62.64-.62h12.7c.32,0,.64.31.64.62v28.4c0,.31-.32.62-.64.62Z"></path><path class="cls-1" d="M59.32,52.57H9.15c-2.78,0-4.91-2.17-4.91-4.75v-31.81c0-2.68,2.24-4.75,4.91-4.75h12.38c.32,0,.64.31.64.62s-.32.62-.64.62h-12.38c-2.03,0-3.63,1.55-3.63,3.51v31.81c0,1.96,1.6,3.51,3.63,3.51h50.18c2.03,0,3.63-1.55,3.63-3.51v-31.81c0-1.96-1.6-3.51-3.63-3.51h-12.38c-.32,0-.64-.31-.64-.62s.32-.62.64-.62h12.38c2.78,0,4.91,2.17,4.91,4.75v31.81c0,2.58-2.14,4.75-4.91,4.75Z"></path><path class="cls-1" d="M59.64,41H8.93c-.32,0-.64-.31-.64-.62s.32-.62.64-.62h50.71c.32,0,.64.31.64.62s-.32.62-.64.62Z"></path><path class="cls-1" d="M46.94,37.08h-25.41c-.32,0-.64-.31-.64-.62V4.85c0-.31.32-.62.64-.62h20.71c.21,0,.32.1.43.21l4.7,4.54c.11.1.21.31.21.41v27.16c0,.21-.32.52-.64.52ZM22.28,35.84h24.02V9.61l-4.27-4.13h-19.75v30.36Z"></path><path class="cls-1" d="M26.98,15.18c-.21,0-.32-.1-.43-.21l-1.39-1.34c-.21-.21-.21-.62,0-.93.21-.21.64-.21.96,0l.96.93,2.88-2.79c.21-.21.64-.21.96,0,.21.21.21.62,0,.93l-3.31,3.2c-.32.21-.53.21-.64.21Z"></path><path class="cls-1" d="M41.6,15.18h-8.65c-.32,0-.64-.31-.64-.62s.32-.62.64-.62h8.65c.32,0,.64.31.64.62s-.32.62-.64.62Z"></path><path class="cls-1" d="M36.9,12.6h-4.06c-.32,0-.64-.31-.64-.62s.32-.62.64-.62h4.06c.32,0,.64.31.64.62s-.32.62-.64.62Z"></path><path class="cls-1" d="M26.98,23.55c-.21,0-.32-.1-.43-.21l-1.39-1.34c-.21-.21-.21-.62,0-.93.21-.21.64-.21.96,0l.96.93,2.88-2.79c.21-.21.64-.21.96,0,.21.21.21.62,0,.93l-3.52,3.2c-.11.1-.32.21-.43.21Z"></path><path class="cls-1" d="M41.6,23.44h-8.65c-.32,0-.64-.31-.64-.62s.32-.62.64-.62h8.65c.32,0,.64.31.64.62,0,.41-.32.62-.64.62Z"></path><path class="cls-1" d="M36.9,20.86h-4.06c-.32,0-.64-.31-.64-.62s.32-.62.64-.62h4.06c.32,0,.64.31.64.62,0,.41-.32.62-.64.62Z"></path><path class="cls-1" d="M26.98,31.91c-.21,0-.32-.1-.43-.21l-1.39-1.34c-.21-.21-.21-.62,0-.93.21-.21.64-.21.96,0l.96.93,2.88-2.79c.21-.21.64-.21.96,0,.21.21.21.62,0,.93l-3.31,3.2c-.32.1-.53.21-.64.21Z"></path><path class="cls-1" d="M41.6,31.91h-8.65c-.32,0-.64-.31-.64-.62s.32-.62.64-.62h8.65c.32,0,.64.31.64.62s-.32.62-.64.62Z"></path><path class="cls-1" d="M36.9,29.33h-4.06c-.32,0-.64-.31-.64-.62s.32-.62.64-.62h4.06c.32,0,.64.31.64.62s-.32.62-.64.62Z"></path></g></g></g></g></svg>