<?xml version="1.0" encoding="UTF-8"?>
<!-- Generator: Adobe Illustrator 28.1.0, SVG Export Plug-In . SVG Version: 6.00 Build 0)  -->
<svg xmlns="http://www.w3.org/2000/svg" xmlns:xlink="http://www.w3.org/1999/xlink" version="1.1" id="Layer_1" x="0px" y="0px" viewBox="0 0 32 32" style="enable-background:new 0 0 32 32;" xml:space="preserve">
<style type="text/css">
	.st0{fill:#FFFFFF;}
	.st1{opacity:0.2;}
	.st2{fill:#B1FF6A;}
	.st3{fill:#BF2000;}
	.st4{fill:#0040FF;}
	.st5{opacity:0.35;}
	.st6{opacity:0.6;}
	.st7{fill:#3784D1;}
	.st8{fill:#1681C4;}
	.st9{fill:#0B1A2A;}
	.st10{fill:#163554;}
	.st11{fill:#214F7D;}
	.st12{fill:#2C6AA7;}
	.st13{fill:#D7E6F6;}
	.st14{fill:#AFCEED;}
	.st15{fill:#87B5E3;}
	.st16{fill:#5F9DDA;}
	.st17{fill:#20252B;}
	.st18{fill:#64686C;}
	.st19{fill:#CACBCD;}
</style>
<path class="st7" d="M12.53,0.04C12.17,0.01,11.81,0,11.41,0c-0.4,0-0.77,0.01-1.13,0.04l-0.3,0.02v8.42h2.85V2.92  c6.03,0.6,11,4.91,12.42,10.84c0.26,1.08,0.4,2.2,0.4,3.33c0,0.92-0.09,1.84-0.27,2.74c-0.03,0.19-0.08,0.38-0.13,0.58  c-0.27,1.14-0.69,2.24-1.25,3.31c-0.44,0.98-1.04,1.86-1.8,2.64l-0.05,0.05l0,0.01c-1.75,1.77-4.08,2.74-6.56,2.74  c-2.11,0-4.1-0.7-5.75-2.02c-2.22-1.76-3.49-4.39-3.49-7.22c0-0.16,0-0.32,0.01-0.5c0-0.59,0.09-1.17,0.26-1.72l0.01-0.05  c0.57-1.79,1.97-3.2,3.76-3.78c0.58-0.19,1.19-0.29,1.81-0.29c0.1,0,0.19,0,0.28,0.01c2.58,0.12,4.74,1.9,5.37,4.37H9.98v2.85h10.8  l0.04-0.28c0.05-0.36,0.07-0.72,0.07-1.11c0-0.41-0.03-0.81-0.08-1.19c-0.57-4.19-4.06-7.35-8.28-7.49c-0.18-0.01-0.38-0.01-0.52,0  c-0.6,0.01-1.2,0.09-1.78,0.23c-2.99,0.69-5.41,2.95-6.32,5.87c-0.01,0.04-0.02,0.07-0.03,0.12c-0.19,0.77-0.31,1.56-0.36,2.37  l0,0.04c0,0.02,0,0.05,0,0.05c-0.01,0.17-0.01,0.34-0.01,0.51c0,5.85,4.17,10.85,9.92,11.89c0.7,0.13,1.42,0.19,2.16,0.19  c3.32,0,6.42-1.32,8.73-3.74c0.88-1.01,1.63-2.13,2.25-3.31c1.25-2.41,1.92-5.13,1.92-7.87C28.49,8.1,21.48,0.62,12.53,0.04z"></path>
</svg>
