<?xml version="1.0" encoding="UTF-8"?>
<!-- Generator: Adobe Illustrator 28.1.0, SVG Export Plug-In . SVG Version: 6.00 Build 0)  -->
<svg xmlns="http://www.w3.org/2000/svg" xmlns:xlink="http://www.w3.org/1999/xlink" version="1.1" id="Layer_1" x="0px" y="0px" viewBox="0 0 300 82.5" style="enable-background:new 0 0 300 82.5;" xml:space="preserve">
<style type="text/css">
	.st0{fill:#FFFFFF;}
	.st1{opacity:0.2;}
	.st2{fill:#B1FF6A;}
	.st3{fill:#BF2000;}
	.st4{fill:#0040FF;}
	.st5{opacity:0.35;}
	.st6{opacity:0.6;}
	.st7{fill:#3784D1;}
	.st8{fill:#1681C4;}
	.st9{fill:#0B1A2A;}
	.st10{fill:#163554;}
	.st11{fill:#214F7D;}
	.st12{fill:#2C6AA7;}
	.st13{fill:#D7E6F6;}
	.st14{fill:#AFCEED;}
	.st15{fill:#87B5E3;}
	.st16{fill:#5F9DDA;}
	.st17{fill:#20252B;}
	.st18{fill:#64686C;}
	.st19{fill:#CACBCD;}
</style>
<g>
	<path class="st7" d="M29.59,0.1C28.67,0.03,27.73,0,26.69,0c-1.03,0-1.98,0.03-2.9,0.1l-0.77,0.05v21.71h7.34V7.53   c15.55,1.54,28.35,12.67,32.02,27.94c0.68,2.79,1.02,5.68,1.02,8.58c0,2.38-0.23,4.76-0.69,7.07c-0.09,0.49-0.19,0.97-0.33,1.5   c-0.69,2.93-1.77,5.79-3.22,8.53c-1.13,2.52-2.69,4.8-4.63,6.79l-0.13,0.14l-0.01,0.02c-4.52,4.55-10.52,7.06-16.91,7.06   c-5.45,0-10.58-1.8-14.82-5.2c-5.71-4.54-8.99-11.33-8.99-18.61c0-0.41,0.01-0.82,0.03-1.29c0-1.52,0.23-3.01,0.67-4.44l0.04-0.13   c1.47-4.62,5.09-8.26,9.7-9.75C25.6,35.25,27.17,35,28.77,35c0.25,0,0.49,0.01,0.73,0.02c6.65,0.31,12.21,4.89,13.85,11.27H23.03   v7.34h27.86l0.1-0.71c0.13-0.92,0.19-1.86,0.19-2.85c0-1.06-0.07-2.09-0.22-3.06C49.48,36.19,40.49,28.07,29.6,27.69   c-0.45-0.04-0.97-0.04-1.34-0.01c-1.55,0.03-3.1,0.22-4.6,0.58c-7.7,1.79-13.94,7.59-16.29,15.13c-0.03,0.09-0.05,0.18-0.08,0.31   c-0.5,1.98-0.81,4.02-0.92,6.1l0,0.1c0,0.06-0.01,0.12,0,0.14c-0.02,0.44-0.03,0.89-0.03,1.33C6.33,66.44,17.1,79.33,31.92,82   c1.79,0.33,3.66,0.5,5.56,0.5c8.57,0,16.55-3.41,22.52-9.63c2.26-2.61,4.21-5.48,5.8-8.54c3.23-6.22,4.95-13.24,4.95-20.29   C70.74,20.9,52.66,1.59,29.59,0.1z"></path>
	<g>
		<g>
			<g>
				<path class="st17" d="M95.85,44.51c-3.12-1.8-5.59-4.26-7.41-7.36c-1.82-3.1-2.73-6.49-2.73-10.18c0-3.72,0.91-7.13,2.73-10.23      c1.82-3.1,4.29-5.55,7.41-7.36c3.12-1.8,6.55-2.71,10.29-2.7c2.79,0,5.48,0.53,8.07,1.57c2.59,1.05,4.83,2.57,6.7,4.55      c1.87,1.99,3.14,4.32,3.81,7.01h-5.15c-1.09-2.65-2.83-4.73-5.22-6.23c-2.39-1.5-5.17-2.25-8.31-2.25      c-2.81,0-5.37,0.67-7.7,2.02c-2.33,1.34-4.17,3.21-5.52,5.58c-1.36,2.37-2.03,5.05-2.03,8.03c0,3,0.68,5.68,2.03,8.04      c1.36,2.37,3.2,4.21,5.52,5.54c2.33,1.33,4.89,1.99,7.7,1.99c2.84,0,5.3-0.52,7.39-1.57c2.08-1.05,3.73-2.48,4.94-4.28      c1.21-1.8,2-3.85,2.36-6.14l-14.86,0l0-4.58l20.12,0c0.02,3.97-0.76,7.57-2.33,10.79c-1.57,3.23-3.86,5.77-6.86,7.64      c-3,1.87-6.55,2.81-10.65,2.81C102.4,47.21,98.97,46.31,95.85,44.51z"></path>
				<path class="st17" d="M138.59,45.77c-1.99-1.02-3.55-2.6-4.67-4.75c-1.12-2.15-1.67-4.86-1.67-8.14l0-15.6h4.89l0,15.46      c0,3.24,0.72,5.71,2.17,7.4c1.45,1.69,3.52,2.53,6.21,2.53c2.71,0,4.79-0.84,6.23-2.52c1.44-1.68,2.16-4.15,2.16-7.41l0-15.46      h4.92l0,15.6c0,3.26-0.56,5.97-1.69,8.13c-1.13,2.16-2.68,3.75-4.67,4.77c-1.98,1.02-4.28,1.53-6.9,1.53      C142.92,47.3,140.58,46.79,138.59,45.77z"></path>
				<path class="st17" d="M172.24,17.28l0,6.53c0.73-2.04,1.86-3.64,3.41-4.79c1.55-1.15,3.37-1.73,5.47-1.73h2.83l0,4.32h-2.58      c-1.72,0-3.25,0.44-4.61,1.33c-1.36,0.89-2.41,2.17-3.18,3.85c-0.76,1.68-1.15,3.66-1.15,5.95l0,13.74l-4.95,0l0-29.2H172.24z"></path>
				<path class="st17" d="M195.24,45.78c-1.99-1.02-3.55-2.6-4.67-4.75c-1.12-2.15-1.67-4.86-1.67-8.14l0-15.6h4.89l0,15.46      c0,3.24,0.72,5.71,2.18,7.4c1.45,1.69,3.52,2.53,6.21,2.53c2.71,0,4.78-0.84,6.23-2.52c1.44-1.68,2.16-4.15,2.16-7.41l0-15.46      l4.92,0l0,15.6c0,3.26-0.56,5.97-1.69,8.13c-1.13,2.16-2.68,3.74-4.67,4.76c-1.99,1.02-4.29,1.53-6.9,1.53      C199.56,47.31,197.23,46.8,195.24,45.78z"></path>
				<path class="st17" d="M243.54,46.48l-9.02-14.26l-5.47,6.04l0,8.21l-4.92,0l0-40.3l4.92,0l0,26.65l12.54-15.54h6.04l-9.5,11.71      l10.99,17.49H243.54z"></path>
				<path class="st17" d="M259.84,45.78c-1.99-1.02-3.55-2.6-4.67-4.75c-1.12-2.15-1.67-4.86-1.67-8.14l0-15.6h4.89l0,15.46      c0,3.24,0.72,5.71,2.18,7.4c1.45,1.69,3.52,2.53,6.21,2.53c2.71,0,4.78-0.84,6.23-2.52c1.44-1.68,2.16-4.15,2.16-7.41l0-15.46      l4.92,0l0,15.6c0,3.26-0.56,5.97-1.69,8.13c-1.13,2.16-2.68,3.75-4.67,4.77c-1.99,1.02-4.29,1.53-6.9,1.53      C264.17,47.31,261.84,46.8,259.84,45.78z"></path>
				<path class="st17" d="M288.74,6.12l4.92,0l0,40.36l-4.92,0L288.74,6.12z"></path>
			</g>
			<g>
				<path class="st17" d="M92.34,60.27c2.16,0,3.86,0.99,3.86,3.24c0,0.96-0.5,1.81-1.57,2.25c1.36,0.41,1.93,1.75,1.93,2.61      c0,2.48-1.98,3.24-4.21,3.24c-1.77,0-3.44,0-5.2,0V60.27H92.34z M88.93,64.97h3.42c1.36,0,2.04-0.53,2.04-1.43      c0-0.79-0.7-1.64-2.06-1.64h-3.4V64.97z M88.93,69.93h3.4c1,0,2.4-0.32,2.4-1.57c0-1.22-1.35-1.77-2.38-1.77      c-1.15,0-2.27,0-3.42,0V69.93z"></path>
				<path class="st17" d="M102.25,65.28l3.22-5.01h2.19v0.08l-4.5,6.61v4.65h-1.81v-4.65l-4.38-6.61v-0.08h2.16L102.25,65.28z"></path>
				<path class="st17" d="M116.94,60.27c3.87,0,5.64,2.77,5.69,5.57c0.06,2.87-1.72,5.77-5.69,5.77c-1.36,0-2.93,0-4.29,0V60.27      H116.94z M114.44,69.87h2.5c2.77,0,3.94-2.04,3.89-4.04c-0.05-1.91-1.21-3.82-3.89-3.82h-2.5V69.87z"></path>
				<path class="st17" d="M133.17,71.62h-8.38c0-3.78,0-7.57,0-11.34h8.33v1.77h-6.51v3.06h6.25v1.69h-6.25v3.05h6.56V71.62z"></path>
				<path class="st17" d="M135.5,71.62V60.29h8.02v1.77h-6.21v3.45h5.9v1.69h-5.9v4.42H135.5z"></path>
				<path class="st17" d="M145.64,71.62V60.27h1.8v11.34H145.64z"></path>
				<path class="st17" d="M158.12,68.34v-8.07h1.82v11.34h-1.38l-6.43-8.01v8.01h-1.83V60.27h1.39L158.12,68.34z"></path>
				<path class="st17" d="M171.16,71.62h-8.38c0-3.78,0-7.57,0-11.34h8.33v1.77h-6.51v3.06h6.25v1.69h-6.25v3.05h6.56V71.62z"></path>
				<path class="st17" d="M177.78,60.27c3.87,0,5.64,2.77,5.69,5.57c0.06,2.87-1.72,5.77-5.69,5.77c-1.36,0-2.93,0-4.29,0V60.27      H177.78z M175.29,69.87h2.5c2.77,0,3.94-2.04,3.89-4.04c-0.05-1.91-1.21-3.82-3.89-3.82h-2.5V69.87z"></path>
				<path class="st17" d="M193.96,62.88c-0.81-0.79-2.01-1.22-3.06-1.22c-2.66,0-4.2,1.99-4.18,4.39c0,2.07,1.23,4.08,4.18,4.08      c0.97,0,1.86-0.24,2.77-1v-2.3h-3.16v-1.62h4.84v4.65c-1.13,1.25-2.54,1.98-4.46,1.98c-4.16,0-5.96-2.77-5.96-5.79      c0-3.27,2.09-6.06,5.96-6.06c1.51,0,3.03,0.57,4.2,1.72L193.96,62.88z"></path>
				<path class="st17" d="M206.05,71.62h-8.38c0-3.78,0-7.57,0-11.34H206v1.77h-6.51v3.06h6.25v1.69h-6.25v3.05h6.56V71.62z"></path>
			</g>
		</g>
	</g>
</g>
</svg>
